<?xml version="1.0"?>
<svg xmlns="http://www.w3.org/2000/svg" xmlns:xlink="http://www.w3.org/1999/xlink" version="1.1" width="1000px" height="1000px" viewBox="0 0 1000 1000"><defs><rect id="block" width="34.4827586207" height="34.4827586207" fill="#4160ea" fill-opacity="1"/></defs><rect x="0" y="0" width="1000" height="1000" fill="#ffffff" fill-opacity="0"/><use x="0.0000000000" y="0.0000000000" xlink:href="#block"/><use x="34.4827586207" y="0.0000000000" xlink:href="#block"/><use x="68.9655172414" y="0.0000000000" xlink:href="#block"/><use x="103.4482758621" y="0.0000000000" xlink:href="#block"/><use x="137.9310344828" y="0.0000000000" xlink:href="#block"/><use x="172.4137931034" y="0.0000000000" xlink:href="#block"/><use x="206.8965517241" y="0.0000000000" xlink:href="#block"/><use x="310.3448275862" y="0.0000000000" xlink:href="#block"/><use x="413.7931034483" y="0.0000000000" xlink:href="#block"/><use x="448.2758620690" y="0.0000000000" xlink:href="#block"/><use x="586.2068965517" y="0.0000000000" xlink:href="#block"/><use x="620.6896551724" y="0.0000000000" xlink:href="#block"/><use x="655.1724137931" y="0.0000000000" xlink:href="#block"/><use x="689.6551724138" y="0.0000000000" xlink:href="#block"/><use x="758.6206896552" y="0.0000000000" xlink:href="#block"/><use x="793.1034482759" y="0.0000000000" xlink:href="#block"/><use x="827.5862068966" y="0.0000000000" xlink:href="#block"/><use x="862.0689655172" y="0.0000000000" xlink:href="#block"/><use x="896.5517241379" y="0.0000000000" xlink:href="#block"/><use x="931.0344827586" y="0.0000000000" xlink:href="#block"/><use x="965.5172413793" y="0.0000000000" xlink:href="#block"/><use x="0.0000000000" y="34.4827586207" xlink:href="#block"/><use x="206.8965517241" y="34.4827586207" xlink:href="#block"/><use x="310.3448275862" y="34.4827586207" xlink:href="#block"/><use x="413.7931034483" y="34.4827586207" xlink:href="#block"/><use x="517.2413793103" y="34.4827586207" xlink:href="#block"/><use x="551.7241379310" y="34.4827586207" xlink:href="#block"/><use x="586.2068965517" y="34.4827586207" xlink:href="#block"/><use x="620.6896551724" y="34.4827586207" xlink:href="#block"/><use x="655.1724137931" y="34.4827586207" xlink:href="#block"/><use x="689.6551724138" y="34.4827586207" xlink:href="#block"/><use x="758.6206896552" y="34.4827586207" xlink:href="#block"/><use x="965.5172413793" y="34.4827586207" xlink:href="#block"/><use x="0.0000000000" y="68.9655172414" xlink:href="#block"/><use x="68.9655172414" y="68.9655172414" xlink:href="#block"/><use x="103.4482758621" y="68.9655172414" xlink:href="#block"/><use x="137.9310344828" y="68.9655172414" xlink:href="#block"/><use x="206.8965517241" y="68.9655172414" xlink:href="#block"/><use x="275.8620689655" y="68.9655172414" xlink:href="#block"/><use x="310.3448275862" y="68.9655172414" xlink:href="#block"/><use x="379.3103448276" y="68.9655172414" xlink:href="#block"/><use x="448.2758620690" y="68.9655172414" xlink:href="#block"/><use x="482.7586206897" y="68.9655172414" xlink:href="#block"/><use x="517.2413793103" y="68.9655172414" xlink:href="#block"/><use x="586.2068965517" y="68.9655172414" xlink:href="#block"/><use x="620.6896551724" y="68.9655172414" xlink:href="#block"/><use x="655.1724137931" y="68.9655172414" xlink:href="#block"/><use x="758.6206896552" y="68.9655172414" xlink:href="#block"/><use x="827.5862068966" y="68.9655172414" xlink:href="#block"/><use x="862.0689655172" y="68.9655172414" xlink:href="#block"/><use x="896.5517241379" y="68.9655172414" xlink:href="#block"/><use x="965.5172413793" y="68.9655172414" xlink:href="#block"/><use x="0.0000000000" y="103.4482758621" xlink:href="#block"/><use x="68.9655172414" y="103.4482758621" xlink:href="#block"/><use x="103.4482758621" y="103.4482758621" xlink:href="#block"/><use x="137.9310344828" y="103.4482758621" xlink:href="#block"/><use x="206.8965517241" y="103.4482758621" xlink:href="#block"/><use x="275.8620689655" y="103.4482758621" xlink:href="#block"/><use x="344.8275862069" y="103.4482758621" xlink:href="#block"/><use x="379.3103448276" y="103.4482758621" xlink:href="#block"/><use x="551.7241379310" y="103.4482758621" xlink:href="#block"/><use x="586.2068965517" y="103.4482758621" xlink:href="#block"/><use x="689.6551724138" y="103.4482758621" xlink:href="#block"/><use x="758.6206896552" y="103.4482758621" xlink:href="#block"/><use x="827.5862068966" y="103.4482758621" xlink:href="#block"/><use x="862.0689655172" y="103.4482758621" xlink:href="#block"/><use x="896.5517241379" y="103.4482758621" xlink:href="#block"/><use x="965.5172413793" y="103.4482758621" xlink:href="#block"/><use x="0.0000000000" y="137.9310344828" xlink:href="#block"/><use x="68.9655172414" y="137.9310344828" xlink:href="#block"/><use x="103.4482758621" y="137.9310344828" xlink:href="#block"/><use x="137.9310344828" y="137.9310344828" xlink:href="#block"/><use x="206.8965517241" y="137.9310344828" xlink:href="#block"/><use x="413.7931034483" y="137.9310344828" xlink:href="#block"/><use x="482.7586206897" y="137.9310344828" xlink:href="#block"/><use x="620.6896551724" y="137.9310344828" xlink:href="#block"/><use x="689.6551724138" y="137.9310344828" xlink:href="#block"/><use x="758.6206896552" y="137.9310344828" xlink:href="#block"/><use x="827.5862068966" y="137.9310344828" xlink:href="#block"/><use x="862.0689655172" y="137.9310344828" xlink:href="#block"/><use x="896.5517241379" y="137.9310344828" xlink:href="#block"/><use x="965.5172413793" y="137.9310344828" xlink:href="#block"/><use x="0.0000000000" y="172.4137931034" xlink:href="#block"/><use x="206.8965517241" y="172.4137931034" xlink:href="#block"/><use x="344.8275862069" y="172.4137931034" xlink:href="#block"/><use x="413.7931034483" y="172.4137931034" xlink:href="#block"/><use x="448.2758620690" y="172.4137931034" xlink:href="#block"/><use x="482.7586206897" y="172.4137931034" xlink:href="#block"/><use x="517.2413793103" y="172.4137931034" xlink:href="#block"/><use x="689.6551724138" y="172.4137931034" xlink:href="#block"/><use x="758.6206896552" y="172.4137931034" xlink:href="#block"/><use x="965.5172413793" y="172.4137931034" xlink:href="#block"/><use x="0.0000000000" y="206.8965517241" xlink:href="#block"/><use x="34.4827586207" y="206.8965517241" xlink:href="#block"/><use x="68.9655172414" y="206.8965517241" xlink:href="#block"/><use x="103.4482758621" y="206.8965517241" xlink:href="#block"/><use x="137.9310344828" y="206.8965517241" xlink:href="#block"/><use x="172.4137931034" y="206.8965517241" xlink:href="#block"/><use x="206.8965517241" y="206.8965517241" xlink:href="#block"/><use x="275.8620689655" y="206.8965517241" xlink:href="#block"/><use x="344.8275862069" y="206.8965517241" xlink:href="#block"/><use x="413.7931034483" y="206.8965517241" xlink:href="#block"/><use x="482.7586206897" y="206.8965517241" xlink:href="#block"/><use x="551.7241379310" y="206.8965517241" xlink:href="#block"/><use x="620.6896551724" y="206.8965517241" xlink:href="#block"/><use x="689.6551724138" y="206.8965517241" xlink:href="#block"/><use x="758.6206896552" y="206.8965517241" xlink:href="#block"/><use x="793.1034482759" y="206.8965517241" xlink:href="#block"/><use x="827.5862068966" y="206.8965517241" xlink:href="#block"/><use x="862.0689655172" y="206.8965517241" xlink:href="#block"/><use x="896.5517241379" y="206.8965517241" xlink:href="#block"/><use x="931.0344827586" y="206.8965517241" xlink:href="#block"/><use x="965.5172413793" y="206.8965517241" xlink:href="#block"/><use x="344.8275862069" y="241.3793103448" xlink:href="#block"/><use x="379.3103448276" y="241.3793103448" xlink:href="#block"/><use x="448.2758620690" y="241.3793103448" xlink:href="#block"/><use x="586.2068965517" y="241.3793103448" xlink:href="#block"/><use x="620.6896551724" y="241.3793103448" xlink:href="#block"/><use x="689.6551724138" y="241.3793103448" xlink:href="#block"/><use x="103.4482758621" y="275.8620689655" xlink:href="#block"/><use x="137.9310344828" y="275.8620689655" xlink:href="#block"/><use x="206.8965517241" y="275.8620689655" xlink:href="#block"/><use x="241.3793103448" y="275.8620689655" xlink:href="#block"/><use x="310.3448275862" y="275.8620689655" xlink:href="#block"/><use x="344.8275862069" y="275.8620689655" xlink:href="#block"/><use x="379.3103448276" y="275.8620689655" xlink:href="#block"/><use x="413.7931034483" y="275.8620689655" xlink:href="#block"/><use x="482.7586206897" y="275.8620689655" xlink:href="#block"/><use x="517.2413793103" y="275.8620689655" xlink:href="#block"/><use x="551.7241379310" y="275.8620689655" xlink:href="#block"/><use x="655.1724137931" y="275.8620689655" xlink:href="#block"/><use x="689.6551724138" y="275.8620689655" xlink:href="#block"/><use x="862.0689655172" y="275.8620689655" xlink:href="#block"/><use x="896.5517241379" y="275.8620689655" xlink:href="#block"/><use x="34.4827586207" y="310.3448275862" xlink:href="#block"/><use x="68.9655172414" y="310.3448275862" xlink:href="#block"/><use x="137.9310344828" y="310.3448275862" xlink:href="#block"/><use x="172.4137931034" y="310.3448275862" xlink:href="#block"/><use x="241.3793103448" y="310.3448275862" xlink:href="#block"/><use x="310.3448275862" y="310.3448275862" xlink:href="#block"/><use x="413.7931034483" y="310.3448275862" xlink:href="#block"/><use x="448.2758620690" y="310.3448275862" xlink:href="#block"/><use x="482.7586206897" y="310.3448275862" xlink:href="#block"/><use x="586.2068965517" y="310.3448275862" xlink:href="#block"/><use x="620.6896551724" y="310.3448275862" xlink:href="#block"/><use x="655.1724137931" y="310.3448275862" xlink:href="#block"/><use x="724.1379310345" y="310.3448275862" xlink:href="#block"/><use x="758.6206896552" y="310.3448275862" xlink:href="#block"/><use x="793.1034482759" y="310.3448275862" xlink:href="#block"/><use x="827.5862068966" y="310.3448275862" xlink:href="#block"/><use x="896.5517241379" y="310.3448275862" xlink:href="#block"/><use x="931.0344827586" y="310.3448275862" xlink:href="#block"/><use x="965.5172413793" y="310.3448275862" xlink:href="#block"/><use x="0.0000000000" y="344.8275862069" xlink:href="#block"/><use x="103.4482758621" y="344.8275862069" xlink:href="#block"/><use x="172.4137931034" y="344.8275862069" xlink:href="#block"/><use x="206.8965517241" y="344.8275862069" xlink:href="#block"/><use x="241.3793103448" y="344.8275862069" xlink:href="#block"/><use x="310.3448275862" y="344.8275862069" xlink:href="#block"/><use x="344.8275862069" y="344.8275862069" xlink:href="#block"/><use x="413.7931034483" y="344.8275862069" xlink:href="#block"/><use x="551.7241379310" y="344.8275862069" xlink:href="#block"/><use x="586.2068965517" y="344.8275862069" xlink:href="#block"/><use x="655.1724137931" y="344.8275862069" xlink:href="#block"/><use x="689.6551724138" y="344.8275862069" xlink:href="#block"/><use x="724.1379310345" y="344.8275862069" xlink:href="#block"/><use x="862.0689655172" y="344.8275862069" xlink:href="#block"/><use x="34.4827586207" y="379.3103448276" xlink:href="#block"/><use x="137.9310344828" y="379.3103448276" xlink:href="#block"/><use x="172.4137931034" y="379.3103448276" xlink:href="#block"/><use x="310.3448275862" y="379.3103448276" xlink:href="#block"/><use x="379.3103448276" y="379.3103448276" xlink:href="#block"/><use x="551.7241379310" y="379.3103448276" xlink:href="#block"/><use x="586.2068965517" y="379.3103448276" xlink:href="#block"/><use x="620.6896551724" y="379.3103448276" xlink:href="#block"/><use x="655.1724137931" y="379.3103448276" xlink:href="#block"/><use x="724.1379310345" y="379.3103448276" xlink:href="#block"/><use x="793.1034482759" y="379.3103448276" xlink:href="#block"/><use x="827.5862068966" y="379.3103448276" xlink:href="#block"/><use x="896.5517241379" y="379.3103448276" xlink:href="#block"/><use x="931.0344827586" y="379.3103448276" xlink:href="#block"/><use x="965.5172413793" y="379.3103448276" xlink:href="#block"/><use x="103.4482758621" y="413.7931034483" xlink:href="#block"/><use x="172.4137931034" y="413.7931034483" xlink:href="#block"/><use x="206.8965517241" y="413.7931034483" xlink:href="#block"/><use x="241.3793103448" y="413.7931034483" xlink:href="#block"/><use x="310.3448275862" y="413.7931034483" xlink:href="#block"/><use x="448.2758620690" y="413.7931034483" xlink:href="#block"/><use x="482.7586206897" y="413.7931034483" xlink:href="#block"/><use x="517.2413793103" y="413.7931034483" xlink:href="#block"/><use x="586.2068965517" y="413.7931034483" xlink:href="#block"/><use x="655.1724137931" y="413.7931034483" xlink:href="#block"/><use x="689.6551724138" y="413.7931034483" xlink:href="#block"/><use x="724.1379310345" y="413.7931034483" xlink:href="#block"/><use x="793.1034482759" y="413.7931034483" xlink:href="#block"/><use x="827.5862068966" y="413.7931034483" xlink:href="#block"/><use x="896.5517241379" y="413.7931034483" xlink:href="#block"/><use x="931.0344827586" y="413.7931034483" xlink:href="#block"/><use x="965.5172413793" y="413.7931034483" xlink:href="#block"/><use x="34.4827586207" y="448.2758620690" xlink:href="#block"/><use x="137.9310344828" y="448.2758620690" xlink:href="#block"/><use x="172.4137931034" y="448.2758620690" xlink:href="#block"/><use x="241.3793103448" y="448.2758620690" xlink:href="#block"/><use x="310.3448275862" y="448.2758620690" xlink:href="#block"/><use x="344.8275862069" y="448.2758620690" xlink:href="#block"/><use x="379.3103448276" y="448.2758620690" xlink:href="#block"/><use x="413.7931034483" y="448.2758620690" xlink:href="#block"/><use x="448.2758620690" y="448.2758620690" xlink:href="#block"/><use x="551.7241379310" y="448.2758620690" xlink:href="#block"/><use x="586.2068965517" y="448.2758620690" xlink:href="#block"/><use x="620.6896551724" y="448.2758620690" xlink:href="#block"/><use x="655.1724137931" y="448.2758620690" xlink:href="#block"/><use x="689.6551724138" y="448.2758620690" xlink:href="#block"/><use x="758.6206896552" y="448.2758620690" xlink:href="#block"/><use x="827.5862068966" y="448.2758620690" xlink:href="#block"/><use x="896.5517241379" y="448.2758620690" xlink:href="#block"/><use x="0.0000000000" y="482.7586206897" xlink:href="#block"/><use x="34.4827586207" y="482.7586206897" xlink:href="#block"/><use x="68.9655172414" y="482.7586206897" xlink:href="#block"/><use x="103.4482758621" y="482.7586206897" xlink:href="#block"/><use x="137.9310344828" y="482.7586206897" xlink:href="#block"/><use x="172.4137931034" y="482.7586206897" xlink:href="#block"/><use x="206.8965517241" y="482.7586206897" xlink:href="#block"/><use x="275.8620689655" y="482.7586206897" xlink:href="#block"/><use x="344.8275862069" y="482.7586206897" xlink:href="#block"/><use x="517.2413793103" y="482.7586206897" xlink:href="#block"/><use x="551.7241379310" y="482.7586206897" xlink:href="#block"/><use x="586.2068965517" y="482.7586206897" xlink:href="#block"/><use x="689.6551724138" y="482.7586206897" xlink:href="#block"/><use x="724.1379310345" y="482.7586206897" xlink:href="#block"/><use x="758.6206896552" y="482.7586206897" xlink:href="#block"/><use x="793.1034482759" y="482.7586206897" xlink:href="#block"/><use x="862.0689655172" y="482.7586206897" xlink:href="#block"/><use x="896.5517241379" y="482.7586206897" xlink:href="#block"/><use x="965.5172413793" y="482.7586206897" xlink:href="#block"/><use x="0.0000000000" y="517.2413793103" xlink:href="#block"/><use x="34.4827586207" y="517.2413793103" xlink:href="#block"/><use x="68.9655172414" y="517.2413793103" xlink:href="#block"/><use x="103.4482758621" y="517.2413793103" xlink:href="#block"/><use x="137.9310344828" y="517.2413793103" xlink:href="#block"/><use x="172.4137931034" y="517.2413793103" xlink:href="#block"/><use x="241.3793103448" y="517.2413793103" xlink:href="#block"/><use x="448.2758620690" y="517.2413793103" xlink:href="#block"/><use x="482.7586206897" y="517.2413793103" xlink:href="#block"/><use x="517.2413793103" y="517.2413793103" xlink:href="#block"/><use x="551.7241379310" y="517.2413793103" xlink:href="#block"/><use x="620.6896551724" y="517.2413793103" xlink:href="#block"/><use x="655.1724137931" y="517.2413793103" xlink:href="#block"/><use x="689.6551724138" y="517.2413793103" xlink:href="#block"/><use x="793.1034482759" y="517.2413793103" xlink:href="#block"/><use x="827.5862068966" y="517.2413793103" xlink:href="#block"/><use x="931.0344827586" y="517.2413793103" xlink:href="#block"/><use x="0.0000000000" y="551.7241379310" xlink:href="#block"/><use x="68.9655172414" y="551.7241379310" xlink:href="#block"/><use x="206.8965517241" y="551.7241379310" xlink:href="#block"/><use x="275.8620689655" y="551.7241379310" xlink:href="#block"/><use x="310.3448275862" y="551.7241379310" xlink:href="#block"/><use x="413.7931034483" y="551.7241379310" xlink:href="#block"/><use x="586.2068965517" y="551.7241379310" xlink:href="#block"/><use x="689.6551724138" y="551.7241379310" xlink:href="#block"/><use x="758.6206896552" y="551.7241379310" xlink:href="#block"/><use x="793.1034482759" y="551.7241379310" xlink:href="#block"/><use x="827.5862068966" y="551.7241379310" xlink:href="#block"/><use x="896.5517241379" y="551.7241379310" xlink:href="#block"/><use x="931.0344827586" y="551.7241379310" xlink:href="#block"/><use x="0.0000000000" y="586.2068965517" xlink:href="#block"/><use x="68.9655172414" y="586.2068965517" xlink:href="#block"/><use x="103.4482758621" y="586.2068965517" xlink:href="#block"/><use x="172.4137931034" y="586.2068965517" xlink:href="#block"/><use x="344.8275862069" y="586.2068965517" xlink:href="#block"/><use x="448.2758620690" y="586.2068965517" xlink:href="#block"/><use x="482.7586206897" y="586.2068965517" xlink:href="#block"/><use x="586.2068965517" y="586.2068965517" xlink:href="#block"/><use x="827.5862068966" y="586.2068965517" xlink:href="#block"/><use x="965.5172413793" y="586.2068965517" xlink:href="#block"/><use x="0.0000000000" y="620.6896551724" xlink:href="#block"/><use x="34.4827586207" y="620.6896551724" xlink:href="#block"/><use x="103.4482758621" y="620.6896551724" xlink:href="#block"/><use x="137.9310344828" y="620.6896551724" xlink:href="#block"/><use x="172.4137931034" y="620.6896551724" xlink:href="#block"/><use x="206.8965517241" y="620.6896551724" xlink:href="#block"/><use x="241.3793103448" y="620.6896551724" xlink:href="#block"/><use x="275.8620689655" y="620.6896551724" xlink:href="#block"/><use x="310.3448275862" y="620.6896551724" xlink:href="#block"/><use x="413.7931034483" y="620.6896551724" xlink:href="#block"/><use x="482.7586206897" y="620.6896551724" xlink:href="#block"/><use x="586.2068965517" y="620.6896551724" xlink:href="#block"/><use x="620.6896551724" y="620.6896551724" xlink:href="#block"/><use x="724.1379310345" y="620.6896551724" xlink:href="#block"/><use x="758.6206896552" y="620.6896551724" xlink:href="#block"/><use x="862.0689655172" y="620.6896551724" xlink:href="#block"/><use x="965.5172413793" y="620.6896551724" xlink:href="#block"/><use x="0.0000000000" y="655.1724137931" xlink:href="#block"/><use x="34.4827586207" y="655.1724137931" xlink:href="#block"/><use x="137.9310344828" y="655.1724137931" xlink:href="#block"/><use x="172.4137931034" y="655.1724137931" xlink:href="#block"/><use x="241.3793103448" y="655.1724137931" xlink:href="#block"/><use x="275.8620689655" y="655.1724137931" xlink:href="#block"/><use x="413.7931034483" y="655.1724137931" xlink:href="#block"/><use x="448.2758620690" y="655.1724137931" xlink:href="#block"/><use x="482.7586206897" y="655.1724137931" xlink:href="#block"/><use x="517.2413793103" y="655.1724137931" xlink:href="#block"/><use x="689.6551724138" y="655.1724137931" xlink:href="#block"/><use x="758.6206896552" y="655.1724137931" xlink:href="#block"/><use x="827.5862068966" y="655.1724137931" xlink:href="#block"/><use x="965.5172413793" y="655.1724137931" xlink:href="#block"/><use x="0.0000000000" y="689.6551724138" xlink:href="#block"/><use x="34.4827586207" y="689.6551724138" xlink:href="#block"/><use x="68.9655172414" y="689.6551724138" xlink:href="#block"/><use x="103.4482758621" y="689.6551724138" xlink:href="#block"/><use x="172.4137931034" y="689.6551724138" xlink:href="#block"/><use x="206.8965517241" y="689.6551724138" xlink:href="#block"/><use x="241.3793103448" y="689.6551724138" xlink:href="#block"/><use x="275.8620689655" y="689.6551724138" xlink:href="#block"/><use x="344.8275862069" y="689.6551724138" xlink:href="#block"/><use x="413.7931034483" y="689.6551724138" xlink:href="#block"/><use x="551.7241379310" y="689.6551724138" xlink:href="#block"/><use x="586.2068965517" y="689.6551724138" xlink:href="#block"/><use x="620.6896551724" y="689.6551724138" xlink:href="#block"/><use x="655.1724137931" y="689.6551724138" xlink:href="#block"/><use x="689.6551724138" y="689.6551724138" xlink:href="#block"/><use x="724.1379310345" y="689.6551724138" xlink:href="#block"/><use x="758.6206896552" y="689.6551724138" xlink:href="#block"/><use x="793.1034482759" y="689.6551724138" xlink:href="#block"/><use x="827.5862068966" y="689.6551724138" xlink:href="#block"/><use x="862.0689655172" y="689.6551724138" xlink:href="#block"/><use x="896.5517241379" y="689.6551724138" xlink:href="#block"/><use x="931.0344827586" y="689.6551724138" xlink:href="#block"/><use x="275.8620689655" y="724.1379310345" xlink:href="#block"/><use x="379.3103448276" y="724.1379310345" xlink:href="#block"/><use x="551.7241379310" y="724.1379310345" xlink:href="#block"/><use x="586.2068965517" y="724.1379310345" xlink:href="#block"/><use x="655.1724137931" y="724.1379310345" xlink:href="#block"/><use x="689.6551724138" y="724.1379310345" xlink:href="#block"/><use x="827.5862068966" y="724.1379310345" xlink:href="#block"/><use x="862.0689655172" y="724.1379310345" xlink:href="#block"/><use x="896.5517241379" y="724.1379310345" xlink:href="#block"/><use x="0.0000000000" y="758.6206896552" xlink:href="#block"/><use x="34.4827586207" y="758.6206896552" xlink:href="#block"/><use x="68.9655172414" y="758.6206896552" xlink:href="#block"/><use x="103.4482758621" y="758.6206896552" xlink:href="#block"/><use x="137.9310344828" y="758.6206896552" xlink:href="#block"/><use x="172.4137931034" y="758.6206896552" xlink:href="#block"/><use x="206.8965517241" y="758.6206896552" xlink:href="#block"/><use x="275.8620689655" y="758.6206896552" xlink:href="#block"/><use x="448.2758620690" y="758.6206896552" xlink:href="#block"/><use x="482.7586206897" y="758.6206896552" xlink:href="#block"/><use x="551.7241379310" y="758.6206896552" xlink:href="#block"/><use x="655.1724137931" y="758.6206896552" xlink:href="#block"/><use x="689.6551724138" y="758.6206896552" xlink:href="#block"/><use x="758.6206896552" y="758.6206896552" xlink:href="#block"/><use x="827.5862068966" y="758.6206896552" xlink:href="#block"/><use x="862.0689655172" y="758.6206896552" xlink:href="#block"/><use x="931.0344827586" y="758.6206896552" xlink:href="#block"/><use x="0.0000000000" y="793.1034482759" xlink:href="#block"/><use x="206.8965517241" y="793.1034482759" xlink:href="#block"/><use x="344.8275862069" y="793.1034482759" xlink:href="#block"/><use x="448.2758620690" y="793.1034482759" xlink:href="#block"/><use x="482.7586206897" y="793.1034482759" xlink:href="#block"/><use x="586.2068965517" y="793.1034482759" xlink:href="#block"/><use x="620.6896551724" y="793.1034482759" xlink:href="#block"/><use x="655.1724137931" y="793.1034482759" xlink:href="#block"/><use x="689.6551724138" y="793.1034482759" xlink:href="#block"/><use x="827.5862068966" y="793.1034482759" xlink:href="#block"/><use x="862.0689655172" y="793.1034482759" xlink:href="#block"/><use x="931.0344827586" y="793.1034482759" xlink:href="#block"/><use x="0.0000000000" y="827.5862068966" xlink:href="#block"/><use x="68.9655172414" y="827.5862068966" xlink:href="#block"/><use x="103.4482758621" y="827.5862068966" xlink:href="#block"/><use x="137.9310344828" y="827.5862068966" xlink:href="#block"/><use x="206.8965517241" y="827.5862068966" xlink:href="#block"/><use x="275.8620689655" y="827.5862068966" xlink:href="#block"/><use x="310.3448275862" y="827.5862068966" xlink:href="#block"/><use x="448.2758620690" y="827.5862068966" xlink:href="#block"/><use x="482.7586206897" y="827.5862068966" xlink:href="#block"/><use x="517.2413793103" y="827.5862068966" xlink:href="#block"/><use x="551.7241379310" y="827.5862068966" xlink:href="#block"/><use x="689.6551724138" y="827.5862068966" xlink:href="#block"/><use x="724.1379310345" y="827.5862068966" xlink:href="#block"/><use x="758.6206896552" y="827.5862068966" xlink:href="#block"/><use x="793.1034482759" y="827.5862068966" xlink:href="#block"/><use x="827.5862068966" y="827.5862068966" xlink:href="#block"/><use x="862.0689655172" y="827.5862068966" xlink:href="#block"/><use x="896.5517241379" y="827.5862068966" xlink:href="#block"/><use x="931.0344827586" y="827.5862068966" xlink:href="#block"/><use x="965.5172413793" y="827.5862068966" xlink:href="#block"/><use x="0.0000000000" y="862.0689655172" xlink:href="#block"/><use x="68.9655172414" y="862.0689655172" xlink:href="#block"/><use x="103.4482758621" y="862.0689655172" xlink:href="#block"/><use x="137.9310344828" y="862.0689655172" xlink:href="#block"/><use x="206.8965517241" y="862.0689655172" xlink:href="#block"/><use x="275.8620689655" y="862.0689655172" xlink:href="#block"/><use x="344.8275862069" y="862.0689655172" xlink:href="#block"/><use x="448.2758620690" y="862.0689655172" xlink:href="#block"/><use x="482.7586206897" y="862.0689655172" xlink:href="#block"/><use x="586.2068965517" y="862.0689655172" xlink:href="#block"/><use x="620.6896551724" y="862.0689655172" xlink:href="#block"/><use x="655.1724137931" y="862.0689655172" xlink:href="#block"/><use x="724.1379310345" y="862.0689655172" xlink:href="#block"/><use x="758.6206896552" y="862.0689655172" xlink:href="#block"/><use x="827.5862068966" y="862.0689655172" xlink:href="#block"/><use x="862.0689655172" y="862.0689655172" xlink:href="#block"/><use x="896.5517241379" y="862.0689655172" xlink:href="#block"/><use x="931.0344827586" y="862.0689655172" xlink:href="#block"/><use x="0.0000000000" y="896.5517241379" xlink:href="#block"/><use x="68.9655172414" y="896.5517241379" xlink:href="#block"/><use x="103.4482758621" y="896.5517241379" xlink:href="#block"/><use x="137.9310344828" y="896.5517241379" xlink:href="#block"/><use x="206.8965517241" y="896.5517241379" xlink:href="#block"/><use x="310.3448275862" y="896.5517241379" xlink:href="#block"/><use x="413.7931034483" y="896.5517241379" xlink:href="#block"/><use x="482.7586206897" y="896.5517241379" xlink:href="#block"/><use x="517.2413793103" y="896.5517241379" xlink:href="#block"/><use x="551.7241379310" y="896.5517241379" xlink:href="#block"/><use x="620.6896551724" y="896.5517241379" xlink:href="#block"/><use x="655.1724137931" y="896.5517241379" xlink:href="#block"/><use x="793.1034482759" y="896.5517241379" xlink:href="#block"/><use x="827.5862068966" y="896.5517241379" xlink:href="#block"/><use x="896.5517241379" y="896.5517241379" xlink:href="#block"/><use x="931.0344827586" y="896.5517241379" xlink:href="#block"/><use x="965.5172413793" y="896.5517241379" xlink:href="#block"/><use x="0.0000000000" y="931.0344827586" xlink:href="#block"/><use x="206.8965517241" y="931.0344827586" xlink:href="#block"/><use x="310.3448275862" y="931.0344827586" xlink:href="#block"/><use x="448.2758620690" y="931.0344827586" xlink:href="#block"/><use x="586.2068965517" y="931.0344827586" xlink:href="#block"/><use x="758.6206896552" y="931.0344827586" xlink:href="#block"/><use x="793.1034482759" y="931.0344827586" xlink:href="#block"/><use x="896.5517241379" y="931.0344827586" xlink:href="#block"/><use x="931.0344827586" y="931.0344827586" xlink:href="#block"/><use x="0.0000000000" y="965.5172413793" xlink:href="#block"/><use x="34.4827586207" y="965.5172413793" xlink:href="#block"/><use x="68.9655172414" y="965.5172413793" xlink:href="#block"/><use x="103.4482758621" y="965.5172413793" xlink:href="#block"/><use x="137.9310344828" y="965.5172413793" xlink:href="#block"/><use x="172.4137931034" y="965.5172413793" xlink:href="#block"/><use x="206.8965517241" y="965.5172413793" xlink:href="#block"/><use x="310.3448275862" y="965.5172413793" xlink:href="#block"/><use x="379.3103448276" y="965.5172413793" xlink:href="#block"/><use x="413.7931034483" y="965.5172413793" xlink:href="#block"/><use x="448.2758620690" y="965.5172413793" xlink:href="#block"/><use x="517.2413793103" y="965.5172413793" xlink:href="#block"/><use x="551.7241379310" y="965.5172413793" xlink:href="#block"/><use x="586.2068965517" y="965.5172413793" xlink:href="#block"/><use x="620.6896551724" y="965.5172413793" xlink:href="#block"/><use x="689.6551724138" y="965.5172413793" xlink:href="#block"/><use x="758.6206896552" y="965.5172413793" xlink:href="#block"/><use x="827.5862068966" y="965.5172413793" xlink:href="#block"/><use x="862.0689655172" y="965.5172413793" xlink:href="#block"/><use x="896.5517241379" y="965.5172413793" xlink:href="#block"/></svg>
